<svg width="256" height="182" viewBox="0 -37 256 256" xmlns="http://www.w3.org/2000/svg">
  <g>
    <path 
      d="M216.358 174.771C255.136 205.772 279.98 113.202 218.194 96.135C166.346 81.769 114.174 106.397 61.894 163.862C61.894 163.862 158.461 128.54 216.358 174.771Z" 
      fill="#000000"
    />
    <path 
      d="M62.758 163.105C99.916 124.543 161.701 81.553 219.274 97.431C232.668 101.212 242.174 108.989 248.331 118.278L193.89 8.425C186.113-3.997 166.238-1.404 155.004 8.101L11.126 128.648C-1.944 139.882-2.7 159.865 9.397 171.963C20.091 182.657 37.05 183.628 48.824 174.123L62.758 163.105Z" 
      fill="#000000"
    />
  </g>
</svg>